<svg width="289" height="72" viewBox="0 0 289 72" fill="none" xmlns="http://www.w3.org/2000/svg">
<mask id="mask0_0_1" style="mask-type:luminance" maskUnits="userSpaceOnUse" x="3" y="2" width="283" height="67">
<path d="M3.49941 2.85734H285.34V68.5338H3.49941V2.85734Z" fill="white"/>
</mask>
<g mask="url(#mask0_0_1)">
<path d="M3.49941 2.85734H285.465V68.4029H3.49941V2.85734Z" fill="black"/>
</g>
<mask id="mask1_0_1" style="mask-type:luminance" maskUnits="userSpaceOnUse" x="3" y="2" width="283" height="67">
<path d="M3.50319 2.85734H285.386V68.1935H3.50319V2.85734Z" fill="white"/>
</mask>
<g mask="url(#mask1_0_1)">
<path d="M3.50319 2.85734H285.385V68.1935H3.50319V2.85734Z" stroke="black" stroke-width="5.98521"/>
</g>
<mask id="mask2_0_1" style="mask-type:luminance" maskUnits="userSpaceOnUse" x="17" y="17" width="121" height="42">
<path d="M17.1453 17.3403H137.69V58.426H17.1453V17.3403Z" fill="white"/>
</mask>
<g mask="url(#mask2_0_1)">
<path d="M17.1453 17.3403H137.53V58.5532H17.1453V17.3403Z" fill="white"/>
</g>
<path d="M33.2627 46.1396H35.5085V32.6439L41.4381 41.4578H43.2742L49.1999 32.67V46.1396H51.4496V28.5155H49.3555L42.3827 38.9636L35.3568 28.5155H33.2627V46.1396Z" fill="black"/>
<path d="M66.7204 46.4687C72.1605 46.4687 75.9921 42.6918 75.9921 37.3257C75.9921 31.9633 72.1605 28.1864 66.7204 28.1864C61.2802 28.1864 57.4751 31.9633 57.4751 37.3257C57.4751 42.6918 61.2802 46.4687 66.7204 46.4687ZM59.7741 37.3257C59.7741 33.2235 62.608 30.4039 66.7204 30.4039C70.8327 30.4039 73.6704 33.2235 73.6704 37.3257C73.6704 41.4316 70.8327 44.2512 66.7204 44.2512C62.608 44.2512 59.7741 41.4316 59.7741 37.3257Z" fill="black"/>
<path d="M86.9471 46.1396H89.0412L96.143 28.5155H93.7682L90.7787 35.9421L87.9942 42.9424L85.183 35.9421L82.2202 28.5155H79.8188L86.9471 46.1396Z" fill="black"/>
<path d="M101.122 46.1396H103.368V28.5155H101.122V46.1396Z" fill="black"/>
<path d="M110.521 46.1396H121.659V44.0755H112.767V38.182H120.737V36.144H112.767V30.5797H121.378V28.5155H110.521V46.1396Z" fill="black"/>
<path d="M151.673 45.4851H156.677V32.8942H161.977V28.3059H146.37V32.8942H151.673V45.4851Z" fill="white"/>
<path d="M164.516 45.4851H169.542V40.6013H171.435L173.924 45.4851H179.626L176.416 39.6926C178.256 38.6867 179.303 36.873 179.303 34.4648C179.303 30.6618 176.689 28.3059 172.456 28.3059H164.516V45.4851ZM169.444 36.6487V32.3558H171.784C173.378 32.3558 174.25 33.1149 174.25 34.491C174.25 35.8634 173.378 36.6487 171.784 36.6487H169.444Z" fill="white"/>
<path d="M180.718 45.4851H186.044L186.993 43.0544H192.941L193.886 45.4851H199.239L192.467 28.3059H187.49L180.718 45.4851ZM188.036 39.4234L189.978 34.0984L191.921 39.4234H188.036Z" fill="white"/>
<path d="M209.345 45.8515C214.148 45.8515 217.782 42.9834 218.53 38.6119H213.427C212.805 40.2348 211.337 41.2632 209.444 41.2632C207.004 41.2632 205.309 39.472 205.309 36.8955C205.309 34.2928 207.027 32.5278 209.493 32.5278C211.31 32.5278 212.828 33.5337 213.351 35.0781H218.431C217.536 30.7366 213.951 27.9394 209.292 27.9394C203.916 27.9394 200.206 31.5966 200.206 36.8955C200.206 42.1981 203.916 45.8515 209.345 45.8515Z" fill="white"/>
<path d="M221.166 45.4851H226.193V38.9821H228.385L231.72 45.4851H237.547L232.964 37.1423C233.488 36.529 233.962 35.7175 234.36 34.7116L236.948 28.3059H231.496L229.929 32.6026C229.406 34.0984 228.833 34.4648 227.039 34.4648H226.193V28.3059H221.166V45.4851Z" fill="white"/>
<path d="M239.983 45.4851H252.206V41.4352H244.96V38.7839H251.258V34.8089H244.96V32.3071H251.933V28.3059H239.983V45.4851Z" fill="white"/>
<path d="M255.166 45.4851H260.193V40.6013H262.086L264.575 45.4851H270.276L267.067 39.6926C268.907 38.6867 269.954 36.873 269.954 34.4648C269.954 30.6618 267.34 28.3059 263.106 28.3059H255.166V45.4851ZM260.094 36.6487V32.3558H262.435C264.028 32.3558 264.901 33.1149 264.901 34.491C264.901 35.8634 264.028 36.6487 262.435 36.6487H260.094Z" fill="white"/>
<mask id="mask3_0_1" style="mask-type:luminance" maskUnits="userSpaceOnUse" x="0" y="0" width="289" height="72">
<path d="M0 0H289V72H0V0Z" fill="white"/>
</mask>
<g mask="url(#mask3_0_1)">
<path d="M0 0H289V72H0V0Z" stroke="white" stroke-width="6.00163"/>
</g>
</svg>
