<svg xmlns="http://www.w3.org/2000/svg" version="1.1" xmlns:xlink="http://www.w3.org/1999/xlink" xmlns:svgjs="http://svgjs.com/svgjs" width="1000" height="1000"><rect width="1000" height="1000" rx="0" ry="0" fill="#ffffff"></rect><g transform="matrix(2,0,0,2,2.8307952880859375,12.270744323730469)"><svg xmlns="http://www.w3.org/2000/svg" version="1.1" xmlns:xlink="http://www.w3.org/1999/xlink" xmlns:svgjs="http://svgjs.com/svgjs" width="500" height="500"><svg xmlns="http://www.w3.org/2000/svg" xmlns:xlink="http://www.w3.org/1999/xlink" width="500" zoomAndPan="magnify" viewBox="0 0 375 374.999991" height="500" preserveAspectRatio="xMidYMid meet" version="1.0"><defs><g></g><clipPath id="bca283d1e2"><path d="M 41.753906 65.046875 L 329 65.046875 L 329 291.546875 L 41.753906 291.546875 Z M 41.753906 65.046875 " clip-rule="nonzero"></path></clipPath><clipPath id="f620cf3277"><path d="M 63.378906 122.027344 L 187.5 122.027344 L 187.5 238.417969 L 63.378906 238.417969 Z M 63.378906 122.027344 " clip-rule="nonzero"></path></clipPath></defs><g clip-path="url(#bca283d1e2)"><path stroke-linecap="butt" transform="matrix(0.749541, 0, 0, 0.749535, 41.755084, 65.047832)" fill="none" stroke-linejoin="miter" d="M -0.00157151 -0.00127643 L 383.227622 -0.00127643 L 383.227622 302.186225 L -0.00157151 302.186225 L -0.00157151 -0.00127643 " stroke="#000000" stroke-width="6" stroke-opacity="1" stroke-miterlimit="4"></path></g><g clip-path="url(#f620cf3277)"><path fill="#000000" d="M 63.378906 122.027344 L 187.335938 122.027344 L 187.335938 238.203125 L 63.378906 238.203125 Z M 63.378906 122.027344 " fill-opacity="1" fill-rule="nonzero"></path></g><g fill="#ffffff" fill-opacity="1"><g transform="translate(84.563452, 208.513684)"><g><path d="M 9.007812 0 L 16.777344 0 L 16.777344 -47.324219 L 37.261719 -16.421875 L 43.617188 -16.421875 L 64.101562 -47.238281 L 64.101562 0 L 71.871094 0 L 71.871094 -61.804688 L 64.632812 -61.804688 L 40.527344 -25.164062 L 16.246094 -61.804688 L 9.007812 -61.804688 Z M 9.007812 0 "></path></g></g></g><g fill="#000000" fill-opacity="1"><g transform="translate(226.067871, 212.771517)"><g><path d="M 23.769531 0 L 43.59375 0 L 43.59375 -50.59375 L 64.601562 -50.59375 L 64.601562 -69.039062 L 2.761719 -69.039062 L 2.761719 -50.59375 L 23.769531 -50.59375 Z M 23.769531 0 "></path></g></g></g></svg></svg></g></svg>